<?xml version="1.0" encoding="utf-8"?>
<!-- Generator: Adobe Illustrator 25.0.1, SVG Export Plug-In . SVG Version: 6.00 Build 0)  -->
<svg version="1.1" id="Vrstva_1" xmlns="http://www.w3.org/2000/svg" xmlns:xlink="http://www.w3.org/1999/xlink" x="0px" y="0px"
	 viewBox="0 0 425.2 198.43" style="enable-background:new 0 0 425.2 198.43;" xml:space="preserve">
<style type="text/css">
	.st0{fill:none;}
	.st1{fill:#A21C26;}
</style>
<rect x="0" y="0" class="st0" width="425.2" height="198.43"/>
<g>
	<path d="M73.74,138.51l-5.65,15.13h-2.63l-4.37-11.47l-4.42,11.47h-2.63l-5.62-15.13h2.6l4.39,12.04l4.57-12.04h2.31l4.48,12.1
		l4.51-12.1H73.74z"/>
	<path d="M99.03,138.51l-5.65,15.13h-2.63l-4.37-11.47l-4.42,11.47h-2.63l-5.62-15.13h2.6l4.39,12.04l4.57-12.04h2.31l4.48,12.1
		l4.51-12.1H99.03z"/>
	<path d="M124.31,138.51l-5.65,15.13h-2.63l-4.37-11.47l-4.42,11.47h-2.63L99,138.51h2.6l4.39,12.04l4.57-12.04h2.31l4.48,12.1
		l4.51-12.1H124.31z"/>
	<path d="M125.28,153.25c-0.38-0.37-0.57-0.84-0.57-1.41c0-0.55,0.19-1.01,0.57-1.38c0.38-0.37,0.84-0.56,1.37-0.56
		c0.53,0,0.98,0.18,1.34,0.54s0.54,0.83,0.54,1.4c0,0.57-0.19,1.04-0.56,1.41c-0.37,0.37-0.81,0.56-1.33,0.56
		C126.12,153.8,125.66,153.62,125.28,153.25z"/>
	<path d="M133.1,153.3c-1.14-0.33-2.04-0.76-2.68-1.27l1.14-2.17c0.67,0.48,1.47,0.86,2.43,1.14c0.95,0.29,1.91,0.43,2.88,0.43
		c2.4,0,3.6-0.69,3.6-2.05c0-0.46-0.16-0.82-0.49-1.08c-0.32-0.27-0.73-0.46-1.21-0.58c-0.48-0.12-1.17-0.26-2.07-0.41
		c-1.22-0.19-2.21-0.41-2.98-0.66c-0.77-0.25-1.43-0.67-1.98-1.26c-0.55-0.59-0.83-1.42-0.83-2.48c0-1.37,0.57-2.47,1.71-3.3
		c1.14-0.83,2.67-1.24,4.59-1.24c1.01,0,2.02,0.12,3.02,0.37c1.01,0.25,1.84,0.58,2.48,1l-1.17,2.17c-1.24-0.8-2.69-1.2-4.37-1.2
		c-1.16,0-2.04,0.19-2.65,0.57c-0.61,0.38-0.91,0.88-0.91,1.51c0,0.5,0.17,0.88,0.51,1.17c0.34,0.29,0.77,0.5,1.27,0.63
		c0.5,0.13,1.21,0.29,2.13,0.46c1.22,0.21,2.2,0.43,2.95,0.67c0.75,0.24,1.39,0.64,1.93,1.21c0.53,0.57,0.8,1.37,0.8,2.4
		c0,1.37-0.58,2.46-1.76,3.27c-1.17,0.81-2.76,1.21-4.78,1.21C135.43,153.8,134.24,153.64,133.1,153.3z"/>
	<path d="M158.44,139.33c1.16,0.65,2.07,1.55,2.73,2.71c0.66,1.16,0.98,2.5,0.98,4.02s-0.33,2.87-0.98,4.04s-1.57,2.08-2.73,2.73
		s-2.47,0.97-3.94,0.97c-1.08,0-2.08-0.21-2.98-0.63c-0.9-0.42-1.67-1.03-2.3-1.83v7.82h-2.74v-20.66h2.63v2.4
		c0.61-0.84,1.38-1.47,2.31-1.9c0.93-0.43,1.96-0.64,3.08-0.64C155.97,138.36,157.28,138.69,158.44,139.33z M156.89,150.74
		c0.77-0.45,1.38-1.08,1.83-1.88c0.45-0.81,0.67-1.74,0.67-2.78c0-1.05-0.22-1.97-0.67-2.78c-0.45-0.81-1.06-1.43-1.83-1.87
		c-0.77-0.44-1.64-0.66-2.61-0.66c-0.95,0-1.81,0.22-2.58,0.67s-1.38,1.07-1.83,1.87s-0.67,1.72-0.67,2.77
		c0,1.05,0.22,1.97,0.66,2.78c0.44,0.81,1.05,1.44,1.83,1.88s1.65,0.67,2.6,0.67C155.25,151.41,156.12,151.18,156.89,150.74z"/>
	<path d="M170.54,139.05c0.93-0.46,2.06-0.69,3.4-0.69v2.65c-0.15-0.02-0.36-0.03-0.63-0.03c-1.48,0-2.65,0.44-3.5,1.33
		s-1.27,2.15-1.27,3.78v7.53h-2.74v-15.13h2.63v2.54C168.91,140.17,169.61,139.5,170.54,139.05z"/>
	<path d="M187.45,139.9c1.11,1.03,1.67,2.56,1.67,4.59v9.13h-2.6v-2c-0.46,0.7-1.11,1.24-1.96,1.61c-0.85,0.37-1.85,0.56-3.01,0.56
		c-1.69,0-3.05-0.41-4.07-1.23c-1.02-0.82-1.53-1.89-1.53-3.23c0-1.33,0.49-2.4,1.46-3.21c0.97-0.81,2.51-1.21,4.62-1.21h4.34v-0.54
		c0-1.18-0.34-2.08-1.03-2.71c-0.69-0.63-1.69-0.94-3.03-0.94c-0.89,0-1.77,0.15-2.62,0.44c-0.86,0.29-1.58,0.69-2.17,1.18
		l-1.14-2.06c0.78-0.63,1.71-1.11,2.8-1.44c1.08-0.33,2.24-0.5,3.45-0.5C184.74,138.36,186.34,138.88,187.45,139.9z M184.73,150.99
		c0.76-0.47,1.31-1.13,1.66-1.98v-2.11h-4.22c-2.32,0-3.48,0.78-3.48,2.34c0,0.76,0.29,1.36,0.88,1.8s1.41,0.66,2.46,0.66
		C183.06,151.69,183.97,151.46,184.73,150.99z"/>
	<path d="M207.16,138.51l-6.62,15.13h-2.8l-6.62-15.13h2.85l5.19,12.13l5.31-12.13H207.16z"/>
	<path d="M233.03,140.02c1.11,1.1,1.67,2.74,1.67,4.91v8.7h-2.74v-8.39c0-1.46-0.34-2.57-1.01-3.31c-0.67-0.74-1.64-1.11-2.9-1.11
		c-1.39,0-2.49,0.43-3.31,1.3c-0.82,0.87-1.23,2.11-1.23,3.72v7.79h-2.74v-8.39c0-1.46-0.34-2.57-1.01-3.31
		c-0.68-0.74-1.64-1.11-2.9-1.11c-1.39,0-2.49,0.43-3.31,1.3c-0.82,0.87-1.23,2.11-1.23,3.72v7.79h-2.74v-15.13h2.63v2.25
		c0.55-0.78,1.27-1.37,2.17-1.78s1.91-0.61,3.05-0.61c1.18,0,2.23,0.24,3.14,0.71c0.91,0.48,1.62,1.17,2.11,2.08
		c0.57-0.88,1.37-1.56,2.38-2.05c1.02-0.49,2.16-0.74,3.44-0.74C230.41,138.36,231.92,138.92,233.03,140.02z"/>
	<path d="M239.65,135.08c-0.35-0.34-0.53-0.76-0.53-1.25c0-0.5,0.17-0.92,0.53-1.27c0.35-0.35,0.79-0.53,1.33-0.53
		c0.53,0,0.97,0.17,1.33,0.5c0.35,0.33,0.53,0.75,0.53,1.24c0,0.51-0.18,0.95-0.53,1.3c-0.35,0.35-0.79,0.53-1.33,0.53
		C240.44,135.59,240,135.42,239.65,135.08z M239.61,138.51h2.74v15.13h-2.74V138.51z"/>
	<path d="M248.2,153.3c-1.14-0.33-2.04-0.76-2.68-1.27l1.14-2.17c0.67,0.48,1.47,0.86,2.43,1.14c0.95,0.29,1.91,0.43,2.88,0.43
		c2.4,0,3.6-0.69,3.6-2.05c0-0.46-0.16-0.82-0.49-1.08c-0.32-0.27-0.73-0.46-1.21-0.58c-0.48-0.12-1.17-0.26-2.07-0.41
		c-1.22-0.19-2.21-0.41-2.98-0.66c-0.77-0.25-1.43-0.67-1.98-1.26c-0.55-0.59-0.83-1.42-0.83-2.48c0-1.37,0.57-2.47,1.71-3.3
		c1.14-0.83,2.67-1.24,4.59-1.24c1.01,0,2.02,0.12,3.02,0.37c1.01,0.25,1.84,0.58,2.48,1l-1.17,2.17c-1.24-0.8-2.69-1.2-4.37-1.2
		c-1.16,0-2.04,0.19-2.65,0.57c-0.61,0.38-0.91,0.88-0.91,1.51c0,0.5,0.17,0.88,0.51,1.17c0.34,0.29,0.77,0.5,1.27,0.63
		c0.5,0.13,1.21,0.29,2.13,0.46c1.22,0.21,2.2,0.43,2.95,0.67c0.75,0.24,1.39,0.64,1.93,1.21c0.53,0.57,0.8,1.37,0.8,2.4
		c0,1.37-0.58,2.46-1.76,3.27c-1.17,0.81-2.76,1.21-4.78,1.21C250.53,153.8,249.34,153.64,248.2,153.3z"/>
	<path d="M261.58,132.46h2.74v21.18h-2.74V132.46z"/>
	<path d="M283.5,138.51v15.13h-2.6v-2.28c-0.55,0.78-1.28,1.38-2.18,1.81c-0.9,0.43-1.89,0.64-2.95,0.64
		c-2.02,0-3.61-0.56-4.77-1.67c-1.16-1.11-1.74-2.75-1.74-4.92v-8.71H272v8.39c0,1.47,0.35,2.57,1.06,3.33s1.71,1.13,3.03,1.13
		c1.45,0,2.59-0.44,3.42-1.31c0.84-0.88,1.25-2.11,1.25-3.71v-7.82H283.5z"/>
	<path d="M299.79,151.38v2.25h-12.67v-1.77l8.93-11.1h-8.76v-2.25h12.27v1.8l-8.93,11.07H299.79z"/>
	<path d="M315.26,139.33c1.16,0.65,2.07,1.55,2.73,2.71c0.66,1.16,0.98,2.5,0.98,4.02s-0.33,2.87-0.98,4.04s-1.57,2.08-2.73,2.73
		s-2.47,0.97-3.94,0.97c-1.12,0-2.15-0.22-3.08-0.66c-0.93-0.44-1.7-1.07-2.31-1.91v2.4h-2.63v-21.18h2.74v8.33
		c0.61-0.8,1.37-1.4,2.28-1.81s1.91-0.61,3-0.61C312.79,138.36,314.1,138.69,315.26,139.33z M313.71,150.74
		c0.77-0.45,1.38-1.08,1.83-1.88c0.45-0.81,0.67-1.74,0.67-2.78c0-1.05-0.22-1.97-0.67-2.78c-0.45-0.81-1.06-1.43-1.83-1.87
		c-0.77-0.44-1.64-0.66-2.61-0.66c-0.95,0-1.82,0.22-2.6,0.66c-0.78,0.44-1.39,1.06-1.83,1.87c-0.44,0.81-0.66,1.74-0.66,2.78
		c0,1.05,0.22,1.97,0.66,2.78c0.44,0.81,1.05,1.44,1.83,1.88s1.65,0.67,2.6,0.67C312.07,151.41,312.94,151.18,313.71,150.74z"/>
	<path d="M336.72,138.51v15.13h-2.6v-2.28c-0.55,0.78-1.28,1.38-2.18,1.81c-0.9,0.43-1.89,0.64-2.95,0.64
		c-2.02,0-3.61-0.56-4.77-1.67c-1.16-1.11-1.74-2.75-1.74-4.92v-8.71h2.74v8.39c0,1.47,0.35,2.57,1.06,3.33s1.71,1.13,3.03,1.13
		c1.45,0,2.59-0.44,3.42-1.31c0.84-0.88,1.25-2.11,1.25-3.71v-7.82H336.72z"/>
	<path d="M341.09,153.25c-0.38-0.37-0.57-0.84-0.57-1.41c0-0.55,0.19-1.01,0.57-1.38c0.38-0.37,0.84-0.56,1.37-0.56
		c0.53,0,0.98,0.18,1.34,0.54s0.54,0.83,0.54,1.4c0,0.57-0.19,1.04-0.56,1.41c-0.37,0.37-0.81,0.56-1.33,0.56
		C341.93,153.8,341.47,153.62,341.09,153.25z"/>
	<path d="M348.91,153.3c-1.14-0.33-2.04-0.76-2.68-1.27l1.14-2.17c0.67,0.48,1.47,0.86,2.43,1.14c0.95,0.29,1.91,0.43,2.88,0.43
		c2.4,0,3.6-0.69,3.6-2.05c0-0.46-0.16-0.82-0.49-1.08c-0.32-0.27-0.73-0.46-1.21-0.58c-0.48-0.12-1.17-0.26-2.07-0.41
		c-1.22-0.19-2.21-0.41-2.98-0.66c-0.77-0.25-1.43-0.67-1.98-1.26c-0.55-0.59-0.83-1.42-0.83-2.48c0-1.37,0.57-2.47,1.71-3.3
		c1.14-0.83,2.67-1.24,4.59-1.24c1.01,0,2.02,0.12,3.02,0.37c1.01,0.25,1.84,0.58,2.48,1l-1.17,2.17c-1.24-0.8-2.69-1.2-4.37-1.2
		c-1.16,0-2.04,0.19-2.65,0.57c-0.61,0.38-0.91,0.88-0.91,1.51c0,0.5,0.17,0.88,0.51,1.17c0.34,0.29,0.77,0.5,1.27,0.63
		c0.5,0.13,1.21,0.29,2.13,0.46c1.22,0.21,2.2,0.43,2.95,0.67c0.75,0.24,1.39,0.64,1.93,1.21c0.53,0.57,0.8,1.37,0.8,2.4
		c0,1.37-0.58,2.46-1.76,3.27c-1.17,0.81-2.76,1.21-4.78,1.21C351.24,153.8,350.05,153.64,348.91,153.3z"/>
	<path d="M368.17,146.58l-3.14,2.91v4.14h-2.74v-21.18h2.74v13.58l8.25-7.53h3.31l-6.36,6.25l6.99,8.88h-3.37L368.17,146.58z"/>
</g>
<path class="st1" d="M181.19,93.86c3.63,5.96,4.1,6.17,10.52,3.55c6.04-2.46,10.19-6.91,12.76-13.04c4.88,1.72,9.58,3.37,14.26,5.02
	c-3.61,13.14-17.98,24.47-32.46,25.25c-31.43,1.68-47.38-27.34-40.15-51c0.88-2.89,3.22-5.95,5.75-7.61
	c6.62-4.33,12.28-1.12,15.06,7.92c-9.98,8.27-12.32,15.3-7.81,23.47C163.21,94.84,170.63,97.04,181.19,93.86z"/>
<path d="M244.34,76.09c-3.46-5.72-4.76-6.08-11-3.38c-4.96,2.15-8.89,5.41-11.19,10.37c-1.06,2.29-2.4,2.84-4.78,1.85
	c-3.37-1.4-6.87-2.47-10.61-3.79c1.81-6.3,5.46-11.14,10.06-15.12c11-9.51,23.65-12.65,37.61-7.96
	c14.09,4.74,22.18,14.98,25.34,29.36c1.51,6.88,1.54,13.77-1.18,20.2c-1.21,2.87-4.1,5.42-6.73,7.16
	c-5.54,3.69-15.43-2.47-14.01-8.3c6.63-2.56,10.11-7.34,10.59-13.65c0.24-3.23-0.61-6.89-2.03-9.83
	C262.83,75.65,255.06,73.4,244.34,76.09z"/>
<path class="st1" d="M161.97,75.45c1.55-4.46,4.65-7.14,9.32-7.87c4.83-0.75,8.75,0.97,11.62,4.87c5.09,6.92,5.06,6.95-0.1,14
	c-3.33,4.56-9.69,6.39-14.11,4.06C162.32,87.16,159.83,81.59,161.97,75.45z"/>
<path d="M263.27,94.79c-1.84,4.69-5.38,7.29-10.28,7.87c-4.78,0.56-8.19-1.84-10.82-5.63c-1.05-1.52-2.36-2.87-3.31-4.44
	c-0.39-0.66-0.49-1.89-0.13-2.53c1.04-1.83,2.43-3.45,3.6-5.21c3.34-5.06,9.65-6.85,15.01-4.22
	C262.41,83.14,265.04,89.41,263.27,94.79z"/>
</svg>
