<?xml version="1.0" encoding="utf-8"?>
<!-- Generator: Adobe Illustrator 25.0.1, SVG Export Plug-In . SVG Version: 6.00 Build 0)  -->
<svg version="1.1" id="Vrstva_1" xmlns="http://www.w3.org/2000/svg" xmlns:xlink="http://www.w3.org/1999/xlink" x="0px" y="0px"
	 viewBox="0 0 425.2 425.2" style="enable-background:new 0 0 425.2 425.2;" xml:space="preserve">
<style type="text/css">
	.st0{fill:#242F3B;}
	.st1{fill:#A21C26;}
	.st2{fill:#45161B;}
	.st3{fill:url(#SVGID_1_);}
	.st4{fill:url(#SVGID_2_);}
	.st5{fill:url(#SVGID_3_);}
	.st6{fill:url(#SVGID_4_);}
	.st7{fill:url(#SVGID_5_);}
	.st8{fill:url(#SVGID_6_);}
	.st9{fill:url(#SVGID_7_);}
	.st10{fill:url(#SVGID_8_);}
</style>
<g>
	<g>
		<path class="st0" d="M65.12,336.86c-1.63-0.5-2.91-1.15-3.86-1.97l1.45-3.26c0.93,0.73,2.06,1.33,3.41,1.79
			c1.35,0.46,2.7,0.69,4.05,0.69c1.68,0,2.93-0.27,3.76-0.81c0.83-0.54,1.24-1.25,1.24-2.13c0-0.65-0.23-1.18-0.69-1.6
			s-1.05-0.75-1.76-0.99c-0.71-0.24-1.68-0.51-2.91-0.81c-1.72-0.41-3.12-0.82-4.18-1.23c-1.07-0.41-1.98-1.05-2.75-1.92
			s-1.15-2.05-1.15-3.54c0-1.25,0.34-2.38,1.02-3.41c0.68-1.02,1.7-1.83,3.07-2.44c1.37-0.6,3.04-0.9,5.02-0.9
			c1.38,0,2.73,0.17,4.07,0.52c1.33,0.34,2.49,0.84,3.46,1.49l-1.32,3.26c-0.99-0.58-2.02-1.02-3.1-1.33
			c-1.08-0.3-2.12-0.45-3.13-0.45c-1.66,0-2.89,0.28-3.7,0.84c-0.81,0.56-1.21,1.3-1.21,2.23c0,0.65,0.23,1.17,0.69,1.58
			c0.46,0.41,1.05,0.73,1.76,0.97s1.68,0.51,2.91,0.81c1.68,0.39,3.06,0.79,4.13,1.21c1.08,0.42,2,1.06,2.76,1.92
			c0.76,0.86,1.15,2.02,1.15,3.49c0,1.25-0.34,2.38-1.02,3.39c-0.68,1.01-1.71,1.82-3.08,2.42c-1.38,0.6-3.06,0.9-5.04,0.9
			C68.43,337.6,66.75,337.36,65.12,336.86z"/>
		<path class="st0" d="M97.75,315.64c1.45,0.65,2.57,1.57,3.34,2.78s1.16,2.64,1.16,4.3c0,1.64-0.39,3.06-1.16,4.28
			s-1.89,2.15-3.34,2.79c-1.45,0.65-3.16,0.97-5.12,0.97h-5.1v6.53h-4.2v-22.61h9.3C94.59,314.67,96.29,314.99,97.75,315.64z
			 M96.6,326.04c0.95-0.78,1.42-1.88,1.42-3.33c0-1.44-0.47-2.55-1.42-3.33s-2.34-1.16-4.17-1.16h-4.91v8.98h4.91
			C94.26,327.2,95.65,326.82,96.6,326.04z"/>
		<path class="st0" d="M121.09,337.28l-4.62-6.62c-0.19,0.02-0.48,0.03-0.87,0.03h-5.1v6.59h-4.2v-22.61h9.3
			c1.96,0,3.67,0.32,5.12,0.97c1.45,0.65,2.57,1.57,3.34,2.78s1.16,2.64,1.16,4.3c0,1.7-0.42,3.17-1.24,4.39
			c-0.83,1.23-2.02,2.14-3.57,2.75l5.2,7.43H121.09z M119.57,319.39c-0.95-0.78-2.34-1.16-4.17-1.16h-4.91v9.01h4.91
			c1.83,0,3.22-0.39,4.17-1.18s1.42-1.9,1.42-3.34C120.99,321.27,120.52,320.16,119.57,319.39z"/>
		<path class="st0" d="M144.41,332.05H133.1l-2.23,5.23h-4.33l10.17-22.61h4.13l10.21,22.61h-4.39L144.41,332.05z M143.02,328.75
			l-4.26-9.88l-4.23,9.88H143.02z"/>
		<path class="st0" d="M173.26,314.67l-9.85,22.61h-4.13l-9.88-22.61h4.55l7.53,17.44l7.59-17.44H173.26z"/>
		<path class="st0" d="M205.49,337.28l-0.03-14.99l-7.43,12.4h-1.87l-7.43-12.21v14.79h-4.01v-22.61h3.46l8.98,14.99l8.82-14.99
			h3.46l0.03,22.61H205.49z"/>
		<path class="st0" d="M215.41,314.67h4.2v22.61h-4.2V314.67z"/>
		<path class="st0" d="M236.26,336.86c-1.63-0.5-2.91-1.15-3.86-1.97l1.45-3.26c0.93,0.73,2.06,1.33,3.41,1.79
			c1.35,0.46,2.7,0.69,4.05,0.69c1.68,0,2.93-0.27,3.76-0.81c0.83-0.54,1.24-1.25,1.24-2.13c0-0.65-0.23-1.18-0.69-1.6
			s-1.05-0.75-1.76-0.99c-0.71-0.24-1.68-0.51-2.91-0.81c-1.72-0.41-3.12-0.82-4.18-1.23c-1.07-0.41-1.98-1.05-2.75-1.92
			c-0.76-0.87-1.15-2.05-1.15-3.54c0-1.25,0.34-2.38,1.02-3.41c0.68-1.02,1.7-1.83,3.07-2.44c1.37-0.6,3.04-0.9,5.02-0.9
			c1.38,0,2.73,0.17,4.07,0.52c1.34,0.34,2.49,0.84,3.46,1.49l-1.32,3.26c-0.99-0.58-2.03-1.02-3.1-1.33
			c-1.08-0.3-2.12-0.45-3.13-0.45c-1.66,0-2.89,0.28-3.7,0.84c-0.81,0.56-1.21,1.3-1.21,2.23c0,0.65,0.23,1.17,0.69,1.58
			c0.46,0.41,1.05,0.73,1.76,0.97s1.68,0.51,2.91,0.81c1.68,0.39,3.06,0.79,4.13,1.21s2,1.06,2.76,1.92
			c0.76,0.86,1.15,2.02,1.15,3.49c0,1.25-0.34,2.38-1.02,3.39c-0.68,1.01-1.71,1.82-3.08,2.42c-1.38,0.6-3.06,0.9-5.04,0.9
			C239.57,337.6,237.88,337.36,236.26,336.86z"/>
		<path class="st0" d="M254.46,314.67h4.2v19.06h11.82v3.55h-16.02V314.67z"/>
		<path class="st0" d="M275.75,334.97c-1.74-1.75-2.62-4.27-2.62-7.54v-12.76h4.2v12.6c0,4.44,1.92,6.65,5.75,6.65
			c3.81,0,5.72-2.22,5.72-6.65v-12.6h4.13v12.76c0,3.27-0.87,5.79-2.6,7.54c-1.73,1.76-4.16,2.63-7.29,2.63
			S277.49,336.73,275.75,334.97z"/>
		<path class="st0" d="M316.22,333.73v3.55h-19.29v-2.81l13.31-16.25h-13.08v-3.55h18.64v2.81l-13.31,16.25H316.22z M312.77,308.4
			l-4.33,4.42h-3.68l-4.33-4.42h3.33l2.84,2.39l2.84-2.39H312.77z"/>
		<path class="st0" d="M338.9,327.57c0.73,0.96,1.1,2.15,1.1,3.57c0,1.96-0.76,3.47-2.26,4.54c-1.51,1.07-3.71,1.6-6.59,1.6H319.9
			v-22.61h10.6c2.67,0,4.73,0.52,6.17,1.57c1.44,1.04,2.16,2.48,2.16,4.31c0,1.12-0.26,2.11-0.78,2.97c-0.52,0.86-1.23,1.53-2.13,2
			C337.18,325.93,338.17,326.62,338.9,327.57z M324.1,317.96v6.23h5.95c1.46,0,2.59-0.26,3.38-0.79c0.79-0.53,1.18-1.3,1.18-2.31
			c0-1.03-0.39-1.81-1.18-2.34c-0.79-0.53-1.91-0.79-3.38-0.79H324.1z M335.77,330.72c0-2.17-1.63-3.26-4.88-3.26h-6.79v6.53h6.79
			C334.14,333.99,335.77,332.9,335.77,330.72z"/>
		<path class="st0" d="M346.75,334.97c-1.74-1.75-2.62-4.27-2.62-7.54v-12.76h4.2v12.6c0,4.44,1.92,6.65,5.75,6.65
			c3.81,0,5.72-2.22,5.72-6.65v-12.6h4.13v12.76c0,3.27-0.87,5.79-2.6,7.54c-1.73,1.76-4.16,2.63-7.29,2.63
			S348.49,336.73,346.75,334.97z"/>
	</g>
	<g>
		<path class="st1" d="M117.14,350.93l-3.15,8.54h-1.92l-2.21-5.89l-2.24,5.89h-1.92l-3.14-8.54h1.89l2.26,6.3l2.35-6.3h1.68
			l2.3,6.34l2.32-6.34H117.14z"/>
		<path class="st1" d="M133.29,350.93l-3.15,8.54h-1.92l-2.21-5.89l-2.24,5.89h-1.92l-3.14-8.54h1.89l2.26,6.3l2.35-6.3h1.68
			l2.3,6.34l2.32-6.34H133.29z"/>
		<path class="st1" d="M149.43,350.93l-3.15,8.54h-1.92l-2.21-5.89l-2.24,5.89h-1.92l-3.14-8.54h1.89l2.26,6.3l2.35-6.3h1.68
			l2.3,6.34l2.32-6.34H149.43z"/>
		<path class="st1" d="M151.59,359.21c-0.26-0.25-0.38-0.57-0.38-0.95c0-0.39,0.13-0.71,0.38-0.96c0.25-0.25,0.56-0.37,0.94-0.37
			c0.37,0,0.69,0.12,0.94,0.37c0.25,0.25,0.38,0.57,0.38,0.96c0,0.38-0.13,0.7-0.38,0.95c-0.26,0.25-0.57,0.38-0.93,0.38
			C152.16,359.59,151.85,359.46,151.59,359.21z"/>
		<path class="st1" d="M157.99,359.32c-0.66-0.18-1.19-0.41-1.58-0.69l0.77-1.52c0.38,0.26,0.85,0.46,1.38,0.62
			c0.54,0.15,1.07,0.23,1.59,0.23c1.19,0,1.79-0.32,1.79-0.94c0-0.3-0.15-0.51-0.46-0.62s-0.79-0.23-1.46-0.34
			c-0.7-0.11-1.28-0.23-1.72-0.37c-0.44-0.14-0.83-0.38-1.15-0.73s-0.49-0.83-0.49-1.45c0-0.81,0.34-1.46,1.02-1.94
			c0.68-0.49,1.59-0.73,2.74-0.73c0.59,0,1.17,0.07,1.76,0.2c0.59,0.13,1.07,0.31,1.44,0.54l-0.77,1.52
			c-0.73-0.43-1.54-0.64-2.45-0.64c-0.59,0-1.03,0.09-1.34,0.26s-0.46,0.41-0.46,0.7c0,0.32,0.16,0.55,0.49,0.68
			c0.33,0.13,0.83,0.26,1.51,0.38c0.68,0.11,1.24,0.23,1.68,0.37s0.81,0.37,1.13,0.7c0.31,0.33,0.47,0.8,0.47,1.41
			c0,0.8-0.35,1.44-1.04,1.92c-0.69,0.48-1.64,0.72-2.83,0.72C159.33,359.59,158.65,359.5,157.99,359.32z"/>
		<path class="st1" d="M174.19,351.38c0.66,0.36,1.17,0.87,1.54,1.54c0.37,0.66,0.56,1.42,0.56,2.29c0,0.86-0.19,1.63-0.56,2.3
			c-0.37,0.67-0.89,1.18-1.54,1.54c-0.66,0.36-1.4,0.54-2.23,0.54c-1.15,0-2.06-0.38-2.74-1.15v4.14h-2v-11.65h1.9v1.12
			c0.33-0.41,0.74-0.71,1.22-0.91c0.48-0.2,1.02-0.3,1.61-0.3C172.79,350.84,173.53,351.02,174.19,351.38z M173.55,357.14
			c0.47-0.49,0.71-1.14,0.71-1.94c0-0.8-0.24-1.44-0.71-1.94c-0.47-0.49-1.08-0.74-1.82-0.74c-0.48,0-0.91,0.11-1.3,0.33
			c-0.38,0.22-0.69,0.53-0.91,0.94c-0.22,0.41-0.34,0.87-0.34,1.41c0,0.53,0.11,1,0.34,1.41c0.22,0.41,0.53,0.72,0.91,0.94
			c0.38,0.22,0.82,0.33,1.3,0.33C172.47,357.88,173.08,357.63,173.55,357.14z"/>
		<path class="st1" d="M184.74,350.84v1.9c-0.17-0.03-0.33-0.05-0.46-0.05c-0.78,0-1.39,0.23-1.82,0.68
			c-0.44,0.45-0.66,1.11-0.66,1.96v4.14h-2v-8.54h1.9v1.25C182.28,351.28,183.29,350.84,184.74,350.84z"/>
		<path class="st1" d="M194.14,351.74c0.67,0.6,1,1.51,1,2.73v5.01h-1.89v-1.04c-0.25,0.37-0.59,0.66-1.05,0.86
			c-0.45,0.2-1,0.3-1.64,0.3c-0.64,0-1.2-0.11-1.68-0.33s-0.85-0.52-1.11-0.91c-0.26-0.39-0.39-0.83-0.39-1.32
			c0-0.77,0.29-1.38,0.86-1.85c0.57-0.46,1.47-0.7,2.7-0.7h2.21v-0.13c0-0.6-0.18-1.06-0.54-1.38s-0.89-0.48-1.59-0.48
			c-0.48,0-0.95,0.07-1.42,0.22s-0.86,0.36-1.18,0.62l-0.78-1.46c0.45-0.34,0.99-0.6,1.62-0.78c0.63-0.18,1.3-0.27,2-0.27
			C192.51,350.84,193.48,351.14,194.14,351.74z M192.32,357.79c0.39-0.23,0.66-0.56,0.82-0.98v-0.99h-2.06
			c-1.15,0-1.73,0.38-1.73,1.14c0,0.36,0.14,0.65,0.43,0.86c0.29,0.21,0.69,0.32,1.2,0.32
			C191.48,358.13,191.93,358.02,192.32,357.79z"/>
		<path class="st1" d="M207.14,350.93l-3.66,8.54h-2.06l-3.66-8.54h2.08l2.66,6.34l2.74-6.34H207.14z"/>
		<path class="st1" d="M223.33,351.77c0.63,0.62,0.94,1.56,0.94,2.81v4.9h-2v-4.64c0-0.75-0.17-1.31-0.5-1.69
			c-0.33-0.38-0.8-0.57-1.42-0.57c-0.67,0-1.21,0.22-1.62,0.66c-0.41,0.44-0.61,1.08-0.61,1.9v4.34h-2v-4.64
			c0-0.75-0.17-1.31-0.5-1.69c-0.33-0.38-0.81-0.57-1.42-0.57c-0.68,0-1.22,0.22-1.62,0.66c-0.4,0.44-0.6,1.07-0.6,1.9v4.34h-2
			v-8.54h1.9v1.09c0.32-0.38,0.72-0.68,1.2-0.88c0.48-0.2,1.01-0.3,1.6-0.3c0.64,0,1.21,0.12,1.7,0.36c0.5,0.24,0.89,0.59,1.18,1.06
			c0.35-0.45,0.8-0.8,1.36-1.05c0.55-0.25,1.17-0.38,1.84-0.38C221.85,350.84,222.7,351.15,223.33,351.77z"/>
		<path class="st1" d="M228.53,349.18c-0.25-0.23-0.37-0.51-0.37-0.86c0-0.34,0.12-0.63,0.37-0.86c0.25-0.23,0.55-0.34,0.91-0.34
			c0.36,0,0.67,0.11,0.91,0.33c0.25,0.22,0.37,0.49,0.37,0.82c0,0.35-0.12,0.65-0.36,0.89c-0.24,0.24-0.55,0.36-0.92,0.36
			C229.08,349.52,228.78,349.41,228.53,349.18z M228.44,350.93h2v8.54h-2V350.93z"/>
		<path class="st1" d="M235.27,359.32c-0.66-0.18-1.19-0.41-1.58-0.69l0.77-1.52c0.38,0.26,0.85,0.46,1.38,0.62
			c0.54,0.15,1.07,0.23,1.59,0.23c1.19,0,1.79-0.32,1.79-0.94c0-0.3-0.15-0.51-0.46-0.62s-0.79-0.23-1.46-0.34
			c-0.7-0.11-1.28-0.23-1.72-0.37c-0.44-0.14-0.83-0.38-1.15-0.73s-0.49-0.83-0.49-1.45c0-0.81,0.34-1.46,1.02-1.94
			c0.68-0.49,1.59-0.73,2.74-0.73c0.59,0,1.17,0.07,1.76,0.2c0.59,0.13,1.07,0.31,1.44,0.54l-0.77,1.52
			c-0.73-0.43-1.54-0.64-2.45-0.64c-0.59,0-1.03,0.09-1.34,0.26s-0.46,0.41-0.46,0.7c0,0.32,0.16,0.55,0.49,0.68
			c0.33,0.13,0.83,0.26,1.51,0.38c0.68,0.11,1.24,0.23,1.68,0.37s0.81,0.37,1.13,0.7c0.31,0.33,0.47,0.8,0.47,1.41
			c0,0.8-0.35,1.44-1.04,1.92c-0.69,0.48-1.64,0.72-2.83,0.72C236.61,359.59,235.93,359.5,235.27,359.32z"/>
		<path class="st1" d="M244.5,347.6h2v11.87h-2V347.6z"/>
		<path class="st1" d="M259,350.93v8.54h-1.9v-1.09c-0.32,0.38-0.72,0.68-1.2,0.89c-0.48,0.21-1,0.31-1.55,0.31
			c-1.14,0-2.04-0.32-2.7-0.95c-0.66-0.63-0.98-1.58-0.98-2.82v-4.88h2v4.61c0,0.77,0.17,1.34,0.52,1.72s0.84,0.57,1.48,0.57
			c0.71,0,1.28-0.22,1.7-0.66c0.42-0.44,0.63-1.08,0.63-1.91v-4.32H259z"/>
		<path class="st1" d="M269.89,357.88v1.6h-7.38v-1.26l4.69-5.68h-4.59v-1.6h7.15v1.26l-4.7,5.68H269.89z"/>
		<path class="st1" d="M280.3,351.38c0.66,0.36,1.17,0.87,1.54,1.54c0.37,0.66,0.56,1.42,0.56,2.29c0,0.86-0.19,1.63-0.56,2.3
			c-0.37,0.67-0.89,1.18-1.54,1.54c-0.66,0.36-1.4,0.54-2.23,0.54c-0.59,0-1.12-0.1-1.61-0.3c-0.49-0.2-0.89-0.51-1.22-0.91v1.1
			h-1.9V347.6h2v4.37c0.34-0.37,0.74-0.66,1.21-0.85c0.46-0.19,0.97-0.29,1.53-0.29C278.9,350.84,279.65,351.02,280.3,351.38z
			 M279.66,357.14c0.47-0.49,0.71-1.14,0.71-1.94c0-0.8-0.24-1.44-0.71-1.94c-0.47-0.49-1.08-0.74-1.82-0.74
			c-0.48,0-0.91,0.11-1.3,0.33c-0.38,0.22-0.69,0.53-0.91,0.94c-0.22,0.41-0.34,0.87-0.34,1.41c0,0.53,0.11,1,0.34,1.41
			c0.22,0.41,0.53,0.72,0.91,0.94c0.38,0.22,0.82,0.33,1.3,0.33C278.58,357.88,279.19,357.63,279.66,357.14z"/>
		<path class="st1" d="M294.18,350.93v8.54h-1.9v-1.09c-0.32,0.38-0.72,0.68-1.2,0.89c-0.48,0.21-1,0.31-1.55,0.31
			c-1.14,0-2.04-0.32-2.7-0.95c-0.66-0.63-0.98-1.58-0.98-2.82v-4.88h2v4.61c0,0.77,0.17,1.34,0.52,1.72s0.84,0.57,1.48,0.57
			c0.71,0,1.28-0.22,1.7-0.66c0.42-0.44,0.63-1.08,0.63-1.91v-4.32H294.18z"/>
		<path class="st1" d="M298.12,359.21c-0.26-0.25-0.38-0.57-0.38-0.95c0-0.39,0.13-0.71,0.38-0.96c0.25-0.25,0.56-0.37,0.94-0.37
			c0.37,0,0.69,0.12,0.94,0.37c0.25,0.25,0.38,0.57,0.38,0.96c0,0.38-0.13,0.7-0.38,0.95c-0.26,0.25-0.57,0.38-0.93,0.38
			C298.68,359.59,298.37,359.46,298.12,359.21z"/>
		<path class="st1" d="M304.52,359.32c-0.66-0.18-1.19-0.41-1.58-0.69l0.77-1.52c0.38,0.26,0.85,0.46,1.38,0.62
			c0.54,0.15,1.07,0.23,1.59,0.23c1.19,0,1.79-0.32,1.79-0.94c0-0.3-0.15-0.51-0.46-0.62s-0.79-0.23-1.46-0.34
			c-0.7-0.11-1.28-0.23-1.72-0.37c-0.44-0.14-0.83-0.38-1.15-0.73s-0.49-0.83-0.49-1.45c0-0.81,0.34-1.46,1.02-1.94
			c0.68-0.49,1.59-0.73,2.74-0.73c0.59,0,1.17,0.07,1.76,0.2c0.59,0.13,1.07,0.31,1.44,0.54l-0.77,1.52
			c-0.73-0.43-1.54-0.64-2.45-0.64c-0.59,0-1.03,0.09-1.34,0.26s-0.46,0.41-0.46,0.7c0,0.32,0.16,0.55,0.49,0.68
			c0.33,0.13,0.83,0.26,1.51,0.38c0.68,0.11,1.24,0.23,1.68,0.37s0.81,0.37,1.13,0.7c0.31,0.33,0.47,0.8,0.47,1.41
			c0,0.8-0.35,1.44-1.04,1.92c-0.69,0.48-1.64,0.72-2.83,0.72C305.86,359.59,305.18,359.5,304.52,359.32z"/>
		<path class="st1" d="M317.24,355.81l-1.49,1.41v2.26h-2V347.6h2v7.17l4.14-3.84h2.4l-3.57,3.58l3.9,4.96h-2.43L317.24,355.81z"/>
	</g>
	<g>
		<g>
			<path class="st1" d="M252.42,255.86c-17.46-2.33-36.4-1.76-55.32-1.7c-9.98,0.03-19.96,0.91-29.94,1.39
				c-2.75,0.13-5.56,0.09-7.94-1.42c-2.16-1.36-4.39-3.15-3.62-6.1c0.72-2.78,3.41-2.28,5.51-2.32c12.19-0.24,24.4-0.13,36.57-0.66
				c21.49-0.94,42.92,0.89,64.39,0.71c1.09-0.01,2.18,0.06,3.27,0.15c1.69,0.14,3.41,0.5,4.01,2.29c0.68,2.02-0.6,3.5-2.03,4.67
				C263.34,256.12,258.57,256.05,252.42,255.86z"/>
			<path class="st2" d="M238.06,262c1.71,0.01,4-0.49,4.36,2.08c0.32,2.28-1.65,2.96-3.33,3.73c-3.89,1.78-8.07,2.17-12.25,2.47
				c-12.21,0.87-24.39,0.65-36.46-1.48c-2.69-0.48-6.87-1.01-6.53-4.41c0.35-3.49,4.45-2.88,7.25-2.91
				c7.25-0.08,21.21,0.27,23.23,0.46C214.48,261.94,230.23,261.93,238.06,262z"/>
			<path class="st2" d="M266.32,238.45c-6.15-0.26-12.37,0.47-18.41-1.24c-2-0.57-4.72-1.19-4.8-3.38
				c-0.08-2.57,2.48-4.18,4.87-4.31c12.86-0.71,25.73-1.72,38.62-1.11c3,0.14,3.95,1.67,2.1,4.27c-2.28,3.2-5.04,5.76-9.32,5.77
				C275.04,238.47,270.68,238.45,266.32,238.45z"/>
			<path class="st2" d="M169.66,229.21c1.6,0.04,3.25,0.29,4.76,0.81c2.11,0.72,4.41,2.15,4.32,4.37
				c-0.08,2.22-4.33,4.15-36.16,3.73c-3.3-0.02-4.92-3.49-6.06-6.39c-0.99-2.52,1.1-2.38,2.72-2.71
				C145.21,227.8,165.5,229.1,169.66,229.21z"/>
		</g>
		<g>
			<linearGradient id="SVGID_1_" gradientUnits="userSpaceOnUse" x1="203.7918" y1="327.0228" x2="205.5695" y2="126.1339">
				<stop  offset="0" style="stop-color:#4785C5"/>
				<stop  offset="1" style="stop-color:#242F3B"/>
			</linearGradient>
			<path class="st3" d="M233.46,233.1c-3.22,8.58-22.18,0.83-27.71-0.91c-0.7-0.22-1.4-0.46-2.34-0.77
				c4.01-4.27,5.27-9.06,2.7-14.36c-2.48-5.12-6.7-7.69-12.53-7.72c0.67-4.02-0.34-7.65-2.95-10.77c-2.62-3.13-6.02-4.74-10.16-4.79
				c0.06-0.93,0.15-1.81,0.15-2.69c0-7-6.1-13.09-13.08-13c-3.35,0.04-6.09,1.44-8.12,4.13c-0.87,1.16-1.72,2.34-2.66,3.61
				c-1.58-4.54-4.45-7.72-8.98-9.09c-4.66-1.4-8.68-0.25-11.84,3.58c-3.07-3.76-6.11-7.48-9.2-11.25c9.48-16.84,19-33.75,28.55-50.7
				c1.19,0.73,2.36,1.37,3.45,2.12c3.17,2.17,6.75,3.16,10.47,3.78c2.96,0.49,5.93,0.94,8.89,1.41c0.11,0.02,0.21,0.04,0.41,0.09
				c-1.23,1.74-2.43,3.39-3.6,5.07c-3.15,4.51-6.37,8.98-8.83,13.92c-1.29,2.6-1.7,5.45-1.15,8.34c0.51,2.64,2.6,4.51,5.47,4.9
				c4.6,0.63,9-0.25,13.21-2.1c6.7-2.94,11.86-7.74,16.13-13.56c0.93-1.27,1.93-2.1,3.45-2.49c1.89-0.49,3.74-1.18,5.61-1.74
				c0.33-0.1,0.79-0.08,1.09,0.07c10.74,5.51,21.42,11.15,31.48,17.83c13.12,8.7,25.87,17.91,37.95,28.02
				c0.93,0.78,1.79,1.66,2.52,2.63c1.79,2.39,2.02,5,0.76,7.73c-1.31,2.83-3.56,4.31-6.64,4.52c-2.28,0.16-4.33-0.36-6.34-1.59
				c-9.64-5.89-19.35-11.66-29.04-17.47c-1.25-0.75-2.5-1.5-3.75-2.24c-1.29-0.76-2.64-0.49-3.33,0.67c-0.66,1.1-0.25,2.46,0.98,3.2
				c9.4,5.65,18.81,11.29,28.21,16.94c1.38,0.83,2.74,1.67,4.14,2.47c0.51,0.29,0.76,0.62,0.83,1.23c0.22,2-0.01,3.92-0.85,5.75
				c-1.2,2.61-3.33,3.94-6.14,4.26c-0.47,0.05-0.94,0.11-1.42,0.17c-2.13,0.27-4-0.21-5.9-1.34c-8.43-5.01-16.95-9.88-25.45-14.77
				c-0.65-0.37-1.4-0.72-2.13-0.77c-1-0.07-1.85,0.78-2.08,1.76c-0.22,0.92,0.23,1.93,1.17,2.48c2.82,1.65,5.66,3.28,8.48,4.92
				c6.28,3.64,19.26,9.56,18.21,16.75c-1.07,2.84-3.47,3.86-6.31,3.96c-1.63,0.06-3.27-0.09-4.9-0.17
				c-0.25-0.01-15.51-7.4-22.89-10.97c-0.79-0.38-1.57-0.57-2.38-0.13c-0.8,0.43-1.26,1.11-1.24,2.02c0.02,1.01,0.56,1.71,1.48,2.15
				c3,1.44,6,2.88,8.99,4.33C228.38,224.48,235.25,226.43,233.46,233.1z"/>
			<linearGradient id="SVGID_2_" gradientUnits="userSpaceOnUse" x1="232.0682" y1="327.273" x2="233.8459" y2="126.3842">
				<stop  offset="0" style="stop-color:#4785C5"/>
				<stop  offset="1" style="stop-color:#242F3B"/>
			</linearGradient>
			<path class="st4" d="M297.81,167.95c-3.16,2.98-6.2,6.04-9.46,8.85c-1.6,1.38-3.58,2.31-5.38,3.45
				c-0.44,0.28-0.76,0.24-1.17-0.11c-11.38-9.61-23.53-18.18-35.82-26.56c-7.87-5.37-16.18-10-24.56-14.5
				c-3.43-1.84-6.9-3.6-10.34-5.42c-0.88-0.47-1.71-0.51-2.65-0.2c-3.05,1-6.12,1.92-9.15,2.97c-0.67,0.23-1.37,0.76-1.77,1.34
				c-3.69,5.33-8.07,9.92-13.81,13.05c-3.73,2.03-7.72,3.07-11.99,2.77c-1.86-0.13-2.49-0.83-2.39-2.68c0.1-1.85,0.4-3.67,1.45-5.26
				c3.26-4.97,6.49-9.96,9.83-14.88c2.19-3.22,4.6-6.29,6.82-9.5c0.98-1.43,2.25-2.32,3.83-2.9c3.54-1.29,7.23-1.95,10.94-2.45
				c8.21-1.11,16.46-1.6,24.75-1.44c6.18,0.12,12.21,1.36,18.22,2.72c3.82,0.86,7.65,1.69,11.5,2.42c3.34,0.63,6.63,0.09,9.87-0.81
				c1.02-0.29,2.04-0.6,3.13-0.93C279.01,134.57,288.4,151.24,297.81,167.95z"/>
			<linearGradient id="SVGID_3_" gradientUnits="userSpaceOnUse" x1="295.2972" y1="327.8326" x2="297.075" y2="126.9437">
				<stop  offset="0" style="stop-color:#4785C5"/>
				<stop  offset="1" style="stop-color:#242F3B"/>
			</linearGradient>
			<path class="st5" d="M286.92,97.15c1.08-0.05,1.4,0.53,1.73,1.11c2.08,3.7,4.17,7.41,6.25,11.11
				c9.62,17.09,19.25,34.18,28.87,51.28c0.79,1.4,0.61,2.14-0.73,2.96c-5.05,3.08-10.1,6.16-15.15,9.24
				c-1.14,0.69-1.82,0.51-2.48-0.66c-9.22-16.37-18.43-32.74-27.65-49.1c-2.49-4.43-4.99-8.85-7.49-13.28
				c-0.85-1.51-0.69-2.19,0.77-3.08c5.02-3.07,10.05-6.13,15.08-9.19C286.45,97.34,286.81,97.21,286.92,97.15z"/>
			<linearGradient id="SVGID_4_" gradientUnits="userSpaceOnUse" x1="126.5057" y1="326.3389" x2="128.2835" y2="125.45">
				<stop  offset="0" style="stop-color:#4785C5"/>
				<stop  offset="1" style="stop-color:#242F3B"/>
			</linearGradient>
			<path class="st6" d="M155.44,108.64c-0.1,0.24-0.25,0.66-0.46,1.04c-8.29,14.74-16.59,29.47-24.89,44.21
				c-3.43,6.09-6.85,12.17-10.28,18.26c-0.68,1.21-1.36,1.4-2.54,0.68c-5.05-3.08-10.1-6.16-15.15-9.24
				c-1.29-0.79-1.48-1.54-0.71-2.89c6.65-11.81,13.29-23.62,19.94-35.43c5.06-8.99,10.12-17.97,15.19-26.95
				c0.75-1.33,1.35-1.5,2.65-0.71c5.03,3.06,10.05,6.13,15.08,9.19C154.91,107.17,155.41,107.63,155.44,108.64z"/>
			<linearGradient id="SVGID_5_" gradientUnits="userSpaceOnUse" x1="160.5307" y1="326.64" x2="162.3085" y2="125.7511">
				<stop  offset="0" style="stop-color:#4785C5"/>
				<stop  offset="1" style="stop-color:#242F3B"/>
			</linearGradient>
			<path class="st7" d="M167.83,182.65c5.19,0.04,9.53,5.74,7.96,10.55c-0.3,0.91-0.86,1.76-1.43,2.54
				c-4.49,6.15-9.12,12.2-13.47,18.45c-2.76,3.97-7.03,3.62-9.96,1.5c-2.87-2.07-4.44-5.73-3.46-8.73c0.44-1.34,1.34-2.57,2.18-3.73
				c4.4-6.06,8.86-12.09,13.29-18.14C164.17,183.42,165.79,182.64,167.83,182.65z"/>
			<linearGradient id="SVGID_6_" gradientUnits="userSpaceOnUse" x1="175.489" y1="326.7723" x2="177.2668" y2="125.8835">
				<stop  offset="0" style="stop-color:#4785C5"/>
				<stop  offset="1" style="stop-color:#242F3B"/>
			</linearGradient>
			<path class="st8" d="M189.24,207.11c0.04,1.3-0.41,2.55-1.25,3.7c-3.71,5.09-7.4,10.2-11.11,15.3c-1.58,2.16-3.73,2.81-6.29,2.29
				c-4.61-0.94-7.86-6-6.56-10.31c0.23-0.75,0.62-1.49,1.09-2.13c3.62-4.97,7.28-9.93,10.93-14.88c2.04-2.77,4.84-3.46,8-1.99
				C187.2,200.57,189.26,203.7,189.24,207.11z"/>
			<linearGradient id="SVGID_7_" gradientUnits="userSpaceOnUse" x1="191.1993" y1="326.9114" x2="192.9771" y2="126.0225">
				<stop  offset="0" style="stop-color:#4785C5"/>
				<stop  offset="1" style="stop-color:#242F3B"/>
			</linearGradient>
			<path class="st9" d="M189.24,238.41c-4.57-0.02-8.77-5.18-7.73-10.02c0.12-0.56,0.36-1.14,0.7-1.61
				c2.54-3.56,5.09-7.11,7.69-10.62c1.51-2.04,3.64-2.54,6.04-2.07c4.22,0.81,7.43,5.17,6.81,9.4c-0.14,0.96-0.55,1.97-1.11,2.76
				c-2.34,3.3-4.79,6.52-7.18,9.77C193.26,237.66,191.65,238.45,189.24,238.41z"/>
			<linearGradient id="SVGID_8_" gradientUnits="userSpaceOnUse" x1="142.0567" y1="326.4765" x2="143.8345" y2="125.5876">
				<stop  offset="0" style="stop-color:#4785C5"/>
				<stop  offset="1" style="stop-color:#242F3B"/>
			</linearGradient>
			<path class="st10" d="M152.65,189.36c0.01,1.42-0.41,2.69-1.27,3.82c-1.48,1.94-2.99,3.86-4.37,5.86
				c-1.65,2.39-3.88,2.96-6.55,2.38c-4.5-0.99-7.65-6.2-6.27-10.42c0.22-0.69,0.62-1.35,1.04-1.95c1.28-1.79,2.71-3.48,3.9-5.32
				c2.32-3.59,6.3-3.65,9.3-1.75C151.11,183.68,152.56,186.15,152.65,189.36z"/>
		</g>
		<path class="st0" d="M212.6,62.62c-62.62,0-113.39,50.76-113.39,113.39c0,62.62,50.76,113.39,113.39,113.39
			S325.98,238.62,325.98,176C325.98,113.38,275.22,62.62,212.6,62.62z M212.6,280c-57.44,0-104-46.56-104-104
			c0-57.44,46.56-104,104-104s104,46.56,104,104C316.6,233.44,270.04,280,212.6,280z"/>
	</g>
</g>
</svg>
